<?xml version="1.0" encoding="UTF-8"?>
<svg width="89px" height="38px" viewBox="0 0 89 38" version="1.1" xmlns="http://www.w3.org/2000/svg" xmlns:xlink="http://www.w3.org/1999/xlink">
    <!-- Generator: Sketch 52.1 (67048) - http://www.bohemiancoding.com/sketch -->
    <title>分组</title>
    <desc>Created with Sketch.</desc>
    <g id="Page-1" stroke="none" stroke-width="1" fill="none" fill-rule="evenodd">
        <g id="页面"></g>
        <g id="分组" fill="#FFFFFF">
            <polygon id="Fill-1" points="0 0 0 38 3.91212347 34.2219218 3.91212347 3.80895399 27.3845798 3.80895399 27.3845798 30.4424402 7.82424694 30.4424402 3.92151052 34.2213605 31.2967033 34.2213605 31.2967033 0"></polygon>
            <g transform="translate(38.142857, 3.897436)">
                <path d="M45.3725673,10.1121616 C42.7209324,10.1121616 40.7903387,8.02381903 40.7903387,5.478482 L40.7903387,5.44891975 C40.7903387,2.90439635 42.6912657,0.844802379 45.342053,0.844802379 C47.9925578,0.844802379 49.9237165,2.93287375 49.9237165,5.478482 L49.9237165,5.50777304 C49.9237165,8.05311007 48.0242022,10.1121616 45.3725673,10.1121616 Z M45.342053,10.8037556 C48.5904117,10.8037556 50.7515578,8.28852324 50.7515578,5.478482 L50.7515578,5.44891975 C50.7515578,2.63969215 48.6220562,0.154022046 45.3725673,0.154022046 C42.1230784,0.154022046 39.9636276,2.66898319 39.9636276,5.478482 L39.9636276,5.50777304 C39.9636276,8.31808549 42.0925641,10.8037556 45.342053,10.8037556 Z M31.2277832,5.66968739 L31.2277832,1.03600777 L34.8911927,1.03600777 C36.8370435,1.03600777 37.9703102,1.9038904 37.9703102,3.28707835 L37.9703102,3.31555575 C37.9703102,4.80234718 36.6375705,5.66968739 34.8451387,5.66968739 L31.2277832,5.66968739 Z M30.4307387,10.6271957 L31.2277832,10.6271957 L31.2277832,6.36101015 L34.736926,6.36101015 L38.1550911,10.6271957 L39.1657356,10.6271957 L35.6260784,6.22865805 C37.4346149,5.99324489 38.7673546,5.00765567 38.7673546,3.28707835 L38.7673546,3.25778731 C38.7673546,2.52198557 38.460799,1.83039159 37.9559006,1.34491975 C37.3122752,0.727095797 36.2547292,0.329768279 34.9361165,0.329768279 L30.4307387,0.329768279 L30.4307387,10.6271957 Z M21.7584657,6.08166043 L21.7584657,1.03600777 L24.7932244,1.03600777 C26.7224054,1.03600777 28.0407356,1.88924489 28.0407356,3.52249151 L28.0407356,3.55096891 C28.0407356,5.08115448 26.6930213,6.08166043 24.7002689,6.08166043 L21.7584657,6.08166043 Z M20.9614213,10.6271957 L21.7584657,10.6271957 L21.7584657,6.78789992 L24.6542149,6.78789992 C26.8922117,6.78789992 28.8380625,5.66968739 28.8380625,3.50676114 L28.8380625,3.4774701 C28.8380625,1.49191737 27.2140244,0.329768279 24.8536879,0.329768279 L20.9614213,0.329768279 L20.9614213,10.6271957 Z M14.6263165,10.7741933 C16.9394689,10.7741933 18.5643546,9.62750341 18.5643546,7.58228374 L18.5643546,7.5529927 C18.5643546,5.75783172 17.3381324,5.00765567 15.1625768,4.46305932 C13.3079863,4.00714972 12.8491419,3.78638208 12.8491419,3.11051848 L12.8491419,3.08095623 C12.8491419,2.58083886 13.3232435,2.18351134 14.227653,2.18351134 C15.1320625,2.18351134 16.0658562,2.56619334 17.0163197,3.19784917 L18.2425419,1.49191737 C17.154199,0.653325773 15.8206117,0.182499445 14.2581673,0.182499445 C12.066507,0.182499445 10.5040625,1.41841856 10.5040625,3.28707835 L10.5040625,3.31555575 C10.5040625,5.3605042 11.8986784,5.93439159 14.0589768,6.46407121 C15.8525387,6.9056065 16.2192752,7.19987296 16.2192752,7.77348914 L16.2192752,7.80223775 C16.2192752,8.40622982 15.6378086,8.77318144 14.6720879,8.77318144 C13.4458657,8.77318144 12.4343737,8.28852324 11.468653,7.52370167 L10.0746022,9.12738604 C11.3612879,10.2298682 13.0014308,10.7741933 14.6263165,10.7741933 Z M2.78846889,5.52241856 L2.78846889,2.37471673 L4.61226254,2.37471673 C5.79271333,2.37471673 6.52731651,2.91931308 6.52731651,3.9333797 L6.52731651,3.96294195 C6.52731651,4.84574132 5.83763714,5.52241856 4.65831651,5.52241856 L2.78846889,5.52241856 Z M0.42898,10.6271957 L2.78846889,10.6271957 L2.78846889,7.53834718 L4.58174825,7.53834718 C6.98729111,7.53834718 8.91873238,6.30242807 8.91873238,3.91954782 L8.91873238,3.88944314 C8.91873238,1.78618382 7.37041492,0.329768279 4.81145302,0.329768279 L0.42898,0.329768279 L0.42898,10.6271957 Z" id="Fill-2"></path>
                <path d="M2.15532571,16.6504097 C2.93993841,16.6504097 3.45416063,16.2479291 3.45416063,15.6504462 L3.45416063,15.6374279 C3.45416063,14.9881432 2.94671937,14.6504826 2.18244952,14.6504826 L0.985046349,14.6504826 L0.985046349,16.6504097 L2.15532571,16.6504097 Z M0.45076381,14.1764017 L2.2228527,14.1764017 C3.29170032,14.1764017 3.99522413,14.7218117 3.99522413,15.6179006 L3.99522413,15.6309188 C3.99522413,16.611355 3.14308444,17.1179814 2.13498286,17.1179814 L0.985046349,17.1179814 L0.985046349,18.721937 L0.45076381,18.721937 L0.45076381,14.1764017 Z" id="Fill-4"></path>
                <polygon id="Fill-6" points="4.96981651 14.1763746 8.39278476 14.1763746 8.39278476 14.6439464 5.50409905 14.6439464 5.50409905 16.195829 8.08848952 16.195829 8.08848952 16.6634008 5.50409905 16.6634008 5.50409905 18.2543381 8.42640698 18.2543381 8.42640698 18.7219099 4.96981651 18.7219099"></polygon>
                <path d="M11.4912562,16.4945434 C12.201561,16.4945434 12.7090022,16.1441358 12.7090022,15.5593998 L12.7090022,15.5466528 C12.7090022,14.9882246 12.262307,14.650564 11.4977546,14.650564 L10.0367419,14.650564 L10.0367419,16.4945434 L11.4912562,16.4945434 Z M9.50245937,14.1764831 L11.5384403,14.1764831 C12.1204721,14.1764831 12.5869451,14.3451778 12.8847419,14.6310366 C13.1147292,14.8518043 13.2500657,15.1699375 13.2500657,15.5271255 L13.2500657,15.5401437 C13.2500657,16.2933031 12.7090022,16.7348384 11.9647927,16.8647496 L13.4190244,18.7217472 L12.7629673,18.7217472 L11.3898244,16.955606 L10.0367419,16.955606 L10.0367419,18.7217472 L9.50245937,18.7217472 L9.50245937,14.1764831 Z" id="Fill-8"></path>
                <path d="M14.0823994,18.0595799 L14.4138184,17.6828646 C14.9074152,18.1113816 15.3812343,18.3256401 16.0372914,18.3256401 C16.6730057,18.3256401 17.0922946,18.0009978 17.0922946,17.5529534 L17.0922946,17.5399351 C17.0922946,17.1179272 16.8555263,16.8779034 15.8612692,16.6763919 C14.7720787,16.4491151 14.271701,16.1114546 14.271701,15.3645331 L14.271701,15.351786 C14.271701,14.6374102 14.9277581,14.1115275 15.827647,14.1115275 C16.5173263,14.1115275 17.0112057,14.2997496 17.4915232,14.6699557 L17.180447,15.0659272 C16.7405327,14.7217575 16.3011835,14.5725902 15.8140851,14.5725902 C15.1984311,14.5725902 14.806266,14.8972325 14.806266,15.3062222 L14.806266,15.3192404 C14.806266,15.7477575 15.0495327,15.9880525 16.0912565,16.202311 C17.1465422,16.4230787 17.6336406,16.7932849 17.6336406,17.4881334 L17.6336406,17.5011516 C17.6336406,18.2803475 16.9572406,18.786974 16.0169486,18.786974 C15.2659581,18.786974 14.6505867,18.5464078 14.0823994,18.0595799" id="Fill-10"></path>
                <path d="M22.7887184,16.4622148 L22.7887184,16.4491965 C22.7887184,15.4166874 22.0041057,14.5726715 20.9219787,14.5726715 C19.8395692,14.5726715 19.0682359,15.4036692 19.0682359,16.4361783 L19.0682359,16.4491965 C19.0682359,17.4817056 19.8528486,18.3257215 20.9349756,18.3257215 C22.0176676,18.3257215 22.7887184,17.4944527 22.7887184,16.4622148 M18.5133279,16.4622148 L18.5133279,16.4491965 C18.5133279,15.1959197 19.4943057,14.0985906 20.9349756,14.0985906 C22.3762105,14.0985906 23.3436263,15.1829015 23.3436263,16.4361783 L23.3436263,16.4491965 C23.3436263,17.7024733 22.3626486,18.7998024 20.9219787,18.7998024 C19.4810263,18.7998024 18.5133279,17.7152203 18.5133279,16.4622148" id="Fill-12"></path>
                <polygon id="Fill-14" points="24.4734743 14.1763746 24.9738521 14.1763746 27.9571886 17.819312 27.9571886 14.1763746 28.4781917 14.1763746 28.4781917 18.7219099 28.0521219 18.7219099 24.9944775 14.9946252 24.9944775 18.7219099 24.4734743 18.7219099"></polygon>
                <path d="M32.888947,17.0594807 L31.8133184,14.7414205 L30.7309089,17.0594807 L32.888947,17.0594807 Z M31.5697692,14.1439375 L32.0707121,14.1439375 L34.2284676,18.7217472 L33.6534994,18.7217472 L33.0985914,17.5205434 L30.5212644,17.5205434 L29.9598581,18.7217472 L29.4120137,18.7217472 L31.5697692,14.1439375 Z" id="Fill-16"></path>
                <polygon id="Fill-18" points="35.162233 14.1763746 35.6967981 14.1763746 35.6967981 18.247829 38.3617124 18.247829 38.3617124 18.7219099 35.162233 18.7219099"></polygon>
                <path d="M0.139461587,25.3946527 L0.470880635,25.0179374 C0.96476,25.4464544 1.43829651,25.6607129 2.09435365,25.6607129 C2.73035048,25.6607129 3.14963937,25.3363418 3.14963937,24.8880262 L3.14963937,24.8752791 C3.14963937,24.453 2.91287111,24.2129762 1.91861397,24.0114647 C0.829423492,23.7844592 0.328763175,23.4465274 0.328763175,22.6998771 L0.328763175,22.6868588 C0.328763175,21.972483 0.985102857,21.4466003 1.88470921,21.4466003 C2.57467111,21.4466003 3.06855048,21.6350936 3.54886794,22.0050285 L3.23750921,22.4012712 C2.79787746,22.0568303 2.35824571,21.907663 1.8711473,21.907663 C1.25577587,21.907663 0.863328254,22.2323053 0.863328254,22.6415662 L0.863328254,22.6543132 C0.863328254,23.0831015 1.10687746,23.3233965 2.14860127,23.537655 C3.20388698,23.7584227 3.6909854,24.1286289 3.6909854,24.8234774 L3.6909854,24.8362244 C3.6909854,25.6154203 3.01430286,26.1220468 2.07429333,26.1220468 C1.32330286,26.1220468 0.707648889,25.8814806 0.139461587,25.3946527" id="Fill-20"></path>
                <polygon id="Fill-22" points="5.9302819 21.9855554 4.34071365 21.9855554 4.34071365 21.5114745 8.06119619 21.5114745 8.06119619 21.9855554 6.47162794 21.9855554 6.47162794 26.0570098 5.9302819 26.0570098"></polygon>
                <path d="M11.5249349,24.3946891 L10.4493063,22.0766289 L9.36689683,24.3946891 L11.5249349,24.3946891 Z M10.2057571,21.4791459 L10.7067,21.4791459 L12.864173,26.0569556 L12.2894873,26.0569556 L11.7345794,24.8557518 L9.15725238,24.8557518 L8.59584603,26.0569556 L8.04800159,26.0569556 L10.2057571,21.4791459 Z" id="Fill-24"></path>
                <polygon id="Fill-26" points="14.4408292 21.9855554 12.851261 21.9855554 12.851261 21.5114745 16.5717435 21.5114745 16.5717435 21.9855554 14.9818927 21.9855554 14.9818927 26.0570098 14.4408292 26.0570098"></polygon>
                <polygon id="Fill-28" points="17.5730359 21.511583 20.9960041 21.511583 20.9960041 21.9791548 18.107601 21.9791548 18.107601 23.5310374 20.6917089 23.5310374 20.6917089 23.9986092 18.107601 23.9986092 18.107601 25.5895466 21.0296263 25.5895466 21.0296263 26.0571183 17.5730359 26.0571183"></polygon>
                <polygon id="Fill-30" points="22.10582 21.511583 22.6468835 21.511583 24.3720708 23.9921001 26.0969756 21.511583 26.638039 21.511583 26.638039 26.0571183 26.103474 26.0571183 26.103474 22.3753975 24.3785692 24.8103507 24.3514454 24.8103507 22.6268232 22.3816354 22.6268232 26.0571183 22.10582 26.0571183"></polygon>
                <polygon id="Fill-32" points="27.9778987 21.511583 31.4005844 21.511583 31.4005844 21.9791548 28.5121813 21.9791548 28.5121813 23.5310374 31.0962892 23.5310374 31.0962892 23.9986092 28.5121813 23.9986092 28.5121813 25.5895466 31.4344892 25.5895466 31.4344892 26.0571183 27.9778987 26.0571183"></polygon>
                <polygon id="Fill-34" points="32.5104003 21.511583 33.0107781 21.511583 35.9941146 25.1545204 35.9941146 21.511583 36.5151178 21.511583 36.5151178 26.0571183 36.0887654 26.0571183 33.0314035 22.3298336 33.0314035 26.0571183 32.5104003 26.0571183"></polygon>
                <polygon id="Fill-36" points="39.1062044 21.9855554 37.5166362 21.9855554 37.5166362 21.5114745 41.2371187 21.5114745 41.2371187 21.9855554 39.6475505 21.9855554 39.6475505 26.0570098 39.1062044 26.0570098"></polygon>
            </g>
        </g>
    </g>
</svg>